<mxfile host="app.diagrams.net" modified="2023-12-06T00:28:36.458Z" agent="Mozilla/5.0 (Windows NT 10.0; Win64; x64) AppleWebKit/537.36 (KHTML, like Gecko) Chrome/119.0.0.0 Safari/537.36 Edg/119.0.0.0" etag="97Kw6QbBu7lhW1gy8LX8" version="22.1.5" type="device">
  <diagram name="Page-1" id="hUKiTo7K327caEmrOeeq">
    <mxGraphModel dx="1242" dy="569" grid="1" gridSize="10" guides="1" tooltips="1" connect="1" arrows="1" fold="1" page="1" pageScale="1" pageWidth="850" pageHeight="1100" math="0" shadow="0">
      <root>
        <mxCell id="0" />
        <mxCell id="1" parent="0" />
        <mxCell id="VatyfE2fYWymRy1g3Yko-8" value="" style="edgeStyle=orthogonalEdgeStyle;rounded=0;orthogonalLoop=1;jettySize=auto;html=1;" edge="1" parent="1" source="VatyfE2fYWymRy1g3Yko-1" target="VatyfE2fYWymRy1g3Yko-7">
          <mxGeometry relative="1" as="geometry" />
        </mxCell>
        <mxCell id="VatyfE2fYWymRy1g3Yko-1" value="start" style="ellipse;whiteSpace=wrap;html=1;" vertex="1" parent="1">
          <mxGeometry x="330" y="280" width="120" height="80" as="geometry" />
        </mxCell>
        <mxCell id="VatyfE2fYWymRy1g3Yko-6" value="" style="edgeStyle=orthogonalEdgeStyle;rounded=0;orthogonalLoop=1;jettySize=auto;html=1;" edge="1" parent="1" source="VatyfE2fYWymRy1g3Yko-4" target="VatyfE2fYWymRy1g3Yko-5">
          <mxGeometry relative="1" as="geometry" />
        </mxCell>
        <mxCell id="VatyfE2fYWymRy1g3Yko-4" value="typedef struct Student" style="shape=parallelogram;perimeter=parallelogramPerimeter;whiteSpace=wrap;html=1;fixedSize=1;" vertex="1" parent="1">
          <mxGeometry x="90" y="70" width="120" height="60" as="geometry" />
        </mxCell>
        <mxCell id="VatyfE2fYWymRy1g3Yko-5" value="&lt;div&gt;char name[50];&lt;/div&gt;&lt;div&gt;&amp;nbsp; &amp;nbsp; int age;&lt;/div&gt;&lt;div&gt;&amp;nbsp; &amp;nbsp; char phone[15];&lt;/div&gt;&lt;div&gt;&amp;nbsp; &amp;nbsp; char email[50];&lt;/div&gt;" style="whiteSpace=wrap;html=1;" vertex="1" parent="1">
          <mxGeometry x="290" y="70" width="120" height="60" as="geometry" />
        </mxCell>
        <mxCell id="VatyfE2fYWymRy1g3Yko-10" value="" style="edgeStyle=orthogonalEdgeStyle;rounded=0;orthogonalLoop=1;jettySize=auto;html=1;" edge="1" parent="1" source="VatyfE2fYWymRy1g3Yko-7" target="VatyfE2fYWymRy1g3Yko-9">
          <mxGeometry relative="1" as="geometry" />
        </mxCell>
        <mxCell id="VatyfE2fYWymRy1g3Yko-7" value="n" style="shape=parallelogram;perimeter=parallelogramPerimeter;whiteSpace=wrap;html=1;fixedSize=1;" vertex="1" parent="1">
          <mxGeometry x="330" y="400" width="120" height="60" as="geometry" />
        </mxCell>
        <mxCell id="VatyfE2fYWymRy1g3Yko-12" value="" style="edgeStyle=orthogonalEdgeStyle;rounded=0;orthogonalLoop=1;jettySize=auto;html=1;" edge="1" parent="1" source="VatyfE2fYWymRy1g3Yko-9" target="VatyfE2fYWymRy1g3Yko-11">
          <mxGeometry relative="1" as="geometry" />
        </mxCell>
        <mxCell id="VatyfE2fYWymRy1g3Yko-9" value="Student students[n];" style="whiteSpace=wrap;html=1;" vertex="1" parent="1">
          <mxGeometry x="330" y="500" width="120" height="60" as="geometry" />
        </mxCell>
        <mxCell id="VatyfE2fYWymRy1g3Yko-14" value="" style="edgeStyle=orthogonalEdgeStyle;rounded=0;orthogonalLoop=1;jettySize=auto;html=1;" edge="1" parent="1" source="VatyfE2fYWymRy1g3Yko-11" target="VatyfE2fYWymRy1g3Yko-13">
          <mxGeometry relative="1" as="geometry" />
        </mxCell>
        <mxCell id="VatyfE2fYWymRy1g3Yko-11" value="&lt;div&gt;for (int i = 0; i &amp;lt; n; i++) {&lt;/div&gt;&lt;div&gt;&amp;nbsp; &amp;nbsp; &amp;nbsp; &amp;nbsp; printf(&quot;Nhap thong tin sinh vien thu %d:\n&quot;, i + 1);&lt;/div&gt;&lt;div&gt;&amp;nbsp; &amp;nbsp; &amp;nbsp; &amp;nbsp; printf(&quot;Ho va ten: &quot;);&lt;/div&gt;&lt;div&gt;&amp;nbsp; &amp;nbsp; &amp;nbsp; &amp;nbsp; scanf(&quot; %[^\n]&quot;, students[i].name);&lt;/div&gt;&lt;div&gt;&amp;nbsp; &amp;nbsp; &amp;nbsp; &amp;nbsp; printf(&quot;Tuoi: &quot;);&lt;/div&gt;&lt;div&gt;&amp;nbsp; &amp;nbsp; &amp;nbsp; &amp;nbsp; scanf(&quot;%d&quot;, &amp;amp;students[i].age);&lt;/div&gt;&lt;div&gt;&amp;nbsp; &amp;nbsp; &amp;nbsp; &amp;nbsp; printf(&quot;So dien thoai: &quot;);&lt;/div&gt;&lt;div&gt;&amp;nbsp; &amp;nbsp; &amp;nbsp; &amp;nbsp; scanf(&quot; %[^\n]&quot;, students[i].phone);&lt;/div&gt;&lt;div&gt;&amp;nbsp; &amp;nbsp; &amp;nbsp; &amp;nbsp; printf(&quot;Email: &quot;);&lt;/div&gt;&lt;div&gt;&amp;nbsp; &amp;nbsp; &amp;nbsp; &amp;nbsp; scanf(&quot; %[^\n]&quot;, students[i].email);&lt;/div&gt;&lt;div&gt;&amp;nbsp; &amp;nbsp; }&lt;/div&gt;" style="shape=parallelogram;perimeter=parallelogramPerimeter;whiteSpace=wrap;html=1;fixedSize=1;" vertex="1" parent="1">
          <mxGeometry x="330" y="640" width="300" height="170" as="geometry" />
        </mxCell>
        <mxCell id="VatyfE2fYWymRy1g3Yko-16" value="" style="edgeStyle=orthogonalEdgeStyle;rounded=0;orthogonalLoop=1;jettySize=auto;html=1;" edge="1" parent="1" source="VatyfE2fYWymRy1g3Yko-13" target="VatyfE2fYWymRy1g3Yko-15">
          <mxGeometry relative="1" as="geometry" />
        </mxCell>
        <mxCell id="VatyfE2fYWymRy1g3Yko-13" value="*file = fopen(&quot;C:\\Users\\ADMIN\\Desktop\\students.txt&quot;, &quot;w&quot;);" style="whiteSpace=wrap;html=1;" vertex="1" parent="1">
          <mxGeometry x="270" y="870" width="270" height="60" as="geometry" />
        </mxCell>
        <mxCell id="VatyfE2fYWymRy1g3Yko-18" value="" style="edgeStyle=orthogonalEdgeStyle;rounded=0;orthogonalLoop=1;jettySize=auto;html=1;" edge="1" parent="1" source="VatyfE2fYWymRy1g3Yko-15" target="VatyfE2fYWymRy1g3Yko-17">
          <mxGeometry relative="1" as="geometry" />
        </mxCell>
        <mxCell id="VatyfE2fYWymRy1g3Yko-20" value="" style="edgeStyle=orthogonalEdgeStyle;rounded=0;orthogonalLoop=1;jettySize=auto;html=1;" edge="1" parent="1" source="VatyfE2fYWymRy1g3Yko-15" target="VatyfE2fYWymRy1g3Yko-19">
          <mxGeometry relative="1" as="geometry" />
        </mxCell>
        <mxCell id="VatyfE2fYWymRy1g3Yko-15" value="file == NULL" style="rhombus;whiteSpace=wrap;html=1;" vertex="1" parent="1">
          <mxGeometry x="365" y="1000" width="80" height="80" as="geometry" />
        </mxCell>
        <mxCell id="VatyfE2fYWymRy1g3Yko-25" style="edgeStyle=orthogonalEdgeStyle;rounded=0;orthogonalLoop=1;jettySize=auto;html=1;exitX=1;exitY=0.5;exitDx=0;exitDy=0;entryX=1;entryY=0.5;entryDx=0;entryDy=0;" edge="1" parent="1" source="VatyfE2fYWymRy1g3Yko-17" target="VatyfE2fYWymRy1g3Yko-23">
          <mxGeometry relative="1" as="geometry" />
        </mxCell>
        <mxCell id="VatyfE2fYWymRy1g3Yko-17" value="Không the mo file" style="whiteSpace=wrap;html=1;" vertex="1" parent="1">
          <mxGeometry x="505" y="1010" width="120" height="60" as="geometry" />
        </mxCell>
        <mxCell id="VatyfE2fYWymRy1g3Yko-22" value="" style="edgeStyle=orthogonalEdgeStyle;rounded=0;orthogonalLoop=1;jettySize=auto;html=1;" edge="1" parent="1" source="VatyfE2fYWymRy1g3Yko-19" target="VatyfE2fYWymRy1g3Yko-21">
          <mxGeometry relative="1" as="geometry" />
        </mxCell>
        <mxCell id="VatyfE2fYWymRy1g3Yko-19" value="&lt;div&gt;for (int i = 0; i &amp;lt; n; i++) {&lt;/div&gt;&lt;div&gt;&amp;nbsp; &amp;nbsp; &amp;nbsp; &amp;nbsp; fprintf(file, &quot;Sinh vien %d: %s, %d tuoi, SĐT: %s, Email: %s\n&quot;, i + 1, students[i].name, students[i].age, students[i].phone, students[i].email);&lt;/div&gt;&lt;div&gt;&amp;nbsp; &amp;nbsp; }&lt;/div&gt;" style="shape=parallelogram;perimeter=parallelogramPerimeter;whiteSpace=wrap;html=1;fixedSize=1;" vertex="1" parent="1">
          <mxGeometry x="290" y="1170" width="260" height="110" as="geometry" />
        </mxCell>
        <mxCell id="VatyfE2fYWymRy1g3Yko-24" style="edgeStyle=orthogonalEdgeStyle;rounded=0;orthogonalLoop=1;jettySize=auto;html=1;exitX=0.5;exitY=1;exitDx=0;exitDy=0;entryX=0.5;entryY=0;entryDx=0;entryDy=0;" edge="1" parent="1" source="VatyfE2fYWymRy1g3Yko-21" target="VatyfE2fYWymRy1g3Yko-23">
          <mxGeometry relative="1" as="geometry" />
        </mxCell>
        <mxCell id="VatyfE2fYWymRy1g3Yko-21" value="fclose(file);" style="whiteSpace=wrap;html=1;" vertex="1" parent="1">
          <mxGeometry x="350" y="1340" width="120" height="60" as="geometry" />
        </mxCell>
        <mxCell id="VatyfE2fYWymRy1g3Yko-23" value="end" style="ellipse;whiteSpace=wrap;html=1;" vertex="1" parent="1">
          <mxGeometry x="350" y="1440" width="120" height="80" as="geometry" />
        </mxCell>
      </root>
    </mxGraphModel>
  </diagram>
</mxfile>
